<svg xmlns="http://www.w3.org/2000/svg" viewBox="0 0 240 200"><style>.bhvr_footer_0{fill:#fff}</style><path id="path14017" class="bhvr_footer_0" d="M113.67 150.62h122.5v-33.76h-83.13v-28.7h74.06V57.81h-74.06V31.4h81.03V0h-120.4v150.62zM56.73 65.36c15.86 0 21.37 15.45 21.37 29.38 0 14.96-5.51 31.59-21.61 31.59-16.3 0-21.77-12.42-21.77-31.59 0-22.61 12.28-29.38 22.01-29.38M0 150.62h34.28v-12.66h.44c6.95 10.32 17.56 15.79 30.26 15.79 34.49 0 49.07-29.53 49.07-60.35 0-28.41-15.22-55.46-46.32-55.46-13.54 0-23.89 5.09-31.34 15.17h-.37V0H0v150.62z"/><path id="path14021" class="bhvr_footer_0" d="M228.35 173.21c0 2.77-1.39 4.34-4.92 4.34h-6.37v-8.57h6.55c3.4 0 4.74 1.69 4.74 4.23M240 199.36l-7.87-14.97c4.34-1.95 7.12-5.62 7.12-11.47 0-9.28-6.17-12.77-15.37-12.77h-17.6v39.21h10.78v-13.22h4.35l6.4 13.22H240zm-38.66-16.78v-22.43h-11.09v22.43c0 4.87-1.85 7.79-6.07 7.79-4.28 0-6.2-2.92-6.2-7.79v-22.43h-11.09v22.43c0 12.49 7.23 17.42 17.12 17.42s17.33-4.92 17.33-17.42m-49.1-2.77c0 7.06-2.47 10.69-6.79 10.69-4.43 0-6.99-3.79-6.99-10.81 0-7.04 2.45-10.71 6.84-10.71 4.4 0 6.94 3.79 6.94 10.83m11.32-.14c0-13.02-7.46-20.15-18.11-20.15-10.7 0-18.26 7.28-18.26 20.28 0 13.06 7.45 20.19 18.11 20.19 10.69-.01 18.26-7.29 18.26-20.32m-40.23-19.54h-11.1v39.19h11.1v-39.19zm-14.19 0H97.01l-2.87 10.5c-1.35 4.98-3.26 12.84-3.99 16.63-.71-3.79-2.62-11.75-4.01-16.63l-2.85-10.5h-12.2l13.48 39.21H95.6l13.54-39.21zm-48.89 23.68h-6.49l.73-2.53c1.41-5.03 1.99-7.17 2.54-9.79.48 2.63 1.12 4.71 2.49 9.79l.73 2.53zm16.6 15.53l-14.27-39.21h-11l-14.29 39.21h11.69l2.12-6.89h11.8l2.14 6.89h11.81zm-42.36 0v-39.21h-11.1v14.26H11.13v-14.26H.01v39.21h11.12v-15.47h12.26v15.47h11.1z"/></svg>